<?xml version="1.0" encoding="utf-8"?>
<!-- Generator: Adobe Illustrator 16.0.0, SVG Export Plug-In . SVG Version: 6.00 Build 0)  -->
<!DOCTYPE svg PUBLIC "-//W3C//DTD SVG 1.1//EN" "http://www.w3.org/Graphics/SVG/1.1/DTD/svg11.dtd">
<svg version="1.1" id="Layer_1" xmlns="http://www.w3.org/2000/svg" xmlns:xlink="http://www.w3.org/1999/xlink" x="0px" y="0px"
	 width="783px" height="320px" viewBox="0 0 783 320" enable-background="new 0 0 783 320" xml:space="preserve">
<path fill="#FFFFFF" d="M599.146,0h-31.968l-37.116,83.872c12.476-6.637,24.801-9.978,37.009-10.872L599.146,0z"/>
<path fill="#FFFFFF" d="M524.179,223.657l31.963,0.5l32.924-71.496c-7.456-6.138-15.729-11.726-25.39-15.383L524.179,223.657z"/>
<path fill="#FFFFFF" d="M693.931,166.632l23.948,57.043l34.52,0.539l-21.18-50.243C718.203,174.908,705.924,171.886,693.931,166.632
	z"/>
<path fill="#FFFFFF" d="M163.395,195.952v27.81H1V-0.009h157.919v27.811H32.967v68.73h112.206v27.172H32.967v72.247L163.395,195.952
	L163.395,195.952z"/>
<path fill="#FFFFFF" d="M182.302-0.321h94.303c23.655,0,44.644,4.689,62.976,14.066c18.327,9.38,32.552,22.536,42.677,39.478
	c10.119,16.945,15.186,36.394,15.186,58.341c0,21.953-5.066,41.399-15.186,58.34c-10.125,16.945-24.35,30.105-42.677,39.479
	c-18.332,9.383-39.32,14.065-62.976,14.065h-94.303V-0.321z M274.687,195.641c18.112,0,34.046-3.518,47.792-10.552
	c13.744-7.03,24.344-16.888,31.807-29.57c7.457-12.674,11.188-27.33,11.188-43.955c0-16.621-3.731-31.273-11.188-43.956
	c-7.463-12.675-18.063-22.536-31.807-29.569c-13.746-7.032-29.68-10.549-47.792-10.549h-60.418v168.15H274.687L274.687,195.641z"/>
<path fill="#FFFFFF" d="M489.68,183.646l-16.392-37.371c-0.087,0.073-0.172,0.144-0.26,0.216c0.071-0.104,0.146-0.197,0.221-0.301
	L409.123,0h-34.525l98.458,224h31.649l40.665-92.961c-10.367-0.146-22.104,1.867-35.594,7.072L489.68,183.646z"/>
<path fill="#FFFFFF" d="M643.892,39.632l27.295,65.014c14.293,7.37,28.545,14.776,42.815,20.704L661.137-0.063L629.49-0.556
	l-34.277,74.962c9.687,1.69,19.313,4.57,28.893,8.2L643.892,39.632z"/>
<path fill="#FFFFFF" d="M480.997,135.742c144.725-122.596,184.275,97.926,291.714,0.666c2.924-2.648,5.896-5.515,8.922-8.646
	c-10.299,4.92-20.523,7.299-30.697,7.782C662.326,139.752,577.629-0.229,480.997,135.742z"/>
<path fill="#FFFFFF" d="M498.448,137.027c108.011-58.13,108.517,81.342,170.171,17.592c-37.421-15.975-94.754-89.154-174.851-16.262
	c-1.201,1.095-2.405,2.217-3.619,3.378C492.992,140.026,495.743,138.482,498.448,137.027z"/>
<path fill="#828384" d="M235.018,273.008c0,15.732-10.765,27.016-25.98,27.016c-10.558,0-18.838-5.484-22.875-14.181V320h-4.348
	v-74.008h4.348v14.181c4.036-8.798,12.316-14.284,22.875-14.284C224.15,245.889,235.018,257.17,235.018,273.008z M230.774,273.008
	c0-13.354-9.315-23.082-22.358-23.082c-12.938,0-22.253,9.729-22.253,23.082c0,13.352,9.315,22.979,22.253,22.979
	C221.458,295.986,230.774,286.359,230.774,273.008z"/>
<path fill="#828384" d="M283.169,289.257c-4.555,7.453-12.214,10.767-21.529,10.767c-10.662,0-17.804-6.729-17.804-15.836
	c0-9.006,7.66-14.492,20.081-14.492h19.148v-5.277c-0.103-9.109-5.382-14.596-16.146-14.596c-6.728,0-12.421,2.691-18.114,7.037
	l-2.07-3.311c6.417-4.658,12.628-7.66,20.805-7.66c12.731,0,19.666,7.038,19.77,18.217l0.207,35.813h-4.244L283.169,289.257z
	 M283.169,282.323v-8.8h-18.838c-10.558,0-16.354,3.625-16.354,10.56c0,7.142,5.485,12.006,14.284,12.006
	C272.301,296.089,279.857,291.743,283.169,282.323z"/>
<path fill="#828384" d="M304.088,259.552c3.416-8.694,10.454-13.454,20.081-13.663v4.451c-11.904,0-19.149,7.865-20.081,20.391
	v29.188h-4.347v-53.927h4.347V259.552z"/>
<path fill="#828384" d="M361.329,296.191c-3.415,2.383-7.245,3.831-11.282,3.831c-7.659,0.104-12.214-4.865-12.214-15.009v-33.951
	h-7.866v-3.726h7.866v-13.353h4.141v13.353h18.32v3.726h-18.32v33.435c0,7.659,3.001,11.385,8.59,11.282
	c3.106,0,6.315-1.139,9.109-3.105L361.329,296.191z"/>
<path fill="#828384" d="M421.778,267.005v32.914h-4.347v-32.087c0-11.075-6.521-17.596-17.597-17.596
	c-12.421,0.31-20.081,8.072-21.012,20.492v29.189h-4.348v-53.927h4.348v13.766c3.622-8.901,11.281-13.661,22.046-13.868
	C414.016,245.889,421.778,253.857,421.778,267.005z"/>
<path fill="#828384" d="M479.682,274.146h-47.094c0.619,13.146,9.729,21.942,22.254,21.942c7.35,0,13.87-2.69,18.217-7.45
	l2.483,2.795c-4.968,5.381-12.316,8.59-20.908,8.59c-15.215,0-26.289-11.178-26.289-27.016s11.074-27.119,26.289-27.119
	C470.472,245.889,479.993,257.48,479.682,274.146z M475.75,270.316c-0.828-12.215-8.799-20.494-21.116-20.494
	c-12.107,0-20.907,8.279-21.941,20.494H475.75z"/>
<path fill="#828384" d="M495.187,259.552c3.416-8.694,10.455-13.454,20.081-13.663v4.451c-11.902,0-19.147,7.865-20.081,20.391
	v29.188h-4.347v-53.927h4.347V259.552z"/>
<path fill="#828384" d="M553.067,250.133l-1.864,3.52c-3.726-2.381-8.487-3.829-13.662-3.829c-7.557,0-13.457,2.897-13.457,9.315
	c0,14.489,31.467,7.348,31.467,26.395c0,10.04-9.005,14.49-18.733,14.49c-7.557,0-14.802-2.69-19.771-7.453l1.968-3.313
	c4.656,4.348,11.179,6.832,18.011,6.832c7.556,0,14.076-3.002,14.388-9.832c0.413-15.217-31.467-8.281-31.467-26.81
	c0-9.419,8.177-13.56,17.7-13.56C543.648,245.889,548.823,247.546,553.067,250.133z"/>
</svg>
